<mxfile host="app.diagrams.net" modified="2022-08-23T20:53:37.959Z" agent="5.0 (Windows NT 10.0; Win64; x64) AppleWebKit/537.36 (KHTML, like Gecko) Chrome/104.0.0.0 Safari/537.36" etag="Huux7ptSo-RdXdWhvg3f" version="20.2.6" type="github">
  <diagram id="kgpKYQtTHZ0yAKxKKP6v" name="Page-1">
    <mxGraphModel dx="1009" dy="539" grid="1" gridSize="10" guides="1" tooltips="1" connect="1" arrows="1" fold="1" page="1" pageScale="1" pageWidth="850" pageHeight="1100" math="0" shadow="0">
      <root>
        <mxCell id="0" />
        <mxCell id="1" parent="0" />
        <mxCell id="3nuBFxr9cyL0pnOWT2aG-1" value=":Object" style="shape=umlLifeline;perimeter=lifelinePerimeter;container=1;collapsible=0;recursiveResize=0;rounded=0;shadow=0;strokeWidth=1;" parent="1" vertex="1">
          <mxGeometry x="60" y="910" width="100" height="300" as="geometry" />
        </mxCell>
        <mxCell id="3nuBFxr9cyL0pnOWT2aG-2" value="" style="points=[];perimeter=orthogonalPerimeter;rounded=0;shadow=0;strokeWidth=1;" parent="3nuBFxr9cyL0pnOWT2aG-1" vertex="1">
          <mxGeometry x="45" y="70" width="10" height="190" as="geometry" />
        </mxCell>
        <mxCell id="3nuBFxr9cyL0pnOWT2aG-3" value="dispatch" style="verticalAlign=bottom;startArrow=oval;endArrow=block;startSize=8;shadow=0;strokeWidth=1;" parent="3nuBFxr9cyL0pnOWT2aG-1" target="3nuBFxr9cyL0pnOWT2aG-2" edge="1">
          <mxGeometry relative="1" as="geometry">
            <mxPoint x="-15" y="70" as="sourcePoint" />
          </mxGeometry>
        </mxCell>
        <mxCell id="3nuBFxr9cyL0pnOWT2aG-4" value="" style="points=[];perimeter=orthogonalPerimeter;rounded=0;shadow=0;strokeWidth=1;" parent="3nuBFxr9cyL0pnOWT2aG-1" vertex="1">
          <mxGeometry x="50" y="120" width="10" height="80" as="geometry" />
        </mxCell>
        <mxCell id="3nuBFxr9cyL0pnOWT2aG-5" value=":Object" style="shape=umlLifeline;perimeter=lifelinePerimeter;container=1;collapsible=0;recursiveResize=0;rounded=0;shadow=0;strokeWidth=1;" parent="1" vertex="1">
          <mxGeometry x="295" y="910" width="100" height="300" as="geometry" />
        </mxCell>
        <mxCell id="3nuBFxr9cyL0pnOWT2aG-6" value="" style="points=[];perimeter=orthogonalPerimeter;rounded=0;shadow=0;strokeWidth=1;" parent="3nuBFxr9cyL0pnOWT2aG-5" vertex="1">
          <mxGeometry x="45" y="80" width="10" height="160" as="geometry" />
        </mxCell>
        <mxCell id="3nuBFxr9cyL0pnOWT2aG-7" value="return" style="verticalAlign=bottom;endArrow=open;dashed=1;endSize=8;exitX=0;exitY=0.95;shadow=0;strokeWidth=1;" parent="1" source="3nuBFxr9cyL0pnOWT2aG-6" target="3nuBFxr9cyL0pnOWT2aG-2" edge="1">
          <mxGeometry relative="1" as="geometry">
            <mxPoint x="270" y="1066" as="targetPoint" />
          </mxGeometry>
        </mxCell>
        <mxCell id="3nuBFxr9cyL0pnOWT2aG-8" value="dispatch" style="verticalAlign=bottom;endArrow=block;entryX=0;entryY=0;shadow=0;strokeWidth=1;" parent="1" source="3nuBFxr9cyL0pnOWT2aG-2" target="3nuBFxr9cyL0pnOWT2aG-6" edge="1">
          <mxGeometry relative="1" as="geometry">
            <mxPoint x="270" y="990" as="sourcePoint" />
          </mxGeometry>
        </mxCell>
        <mxCell id="3nuBFxr9cyL0pnOWT2aG-9" value="callback" style="verticalAlign=bottom;endArrow=block;entryX=1;entryY=0;shadow=0;strokeWidth=1;" parent="1" source="3nuBFxr9cyL0pnOWT2aG-6" target="3nuBFxr9cyL0pnOWT2aG-4" edge="1">
          <mxGeometry relative="1" as="geometry">
            <mxPoint x="235" y="1030" as="sourcePoint" />
          </mxGeometry>
        </mxCell>
        <mxCell id="3nuBFxr9cyL0pnOWT2aG-10" value="return" style="verticalAlign=bottom;endArrow=open;dashed=1;endSize=8;exitX=1;exitY=0.95;shadow=0;strokeWidth=1;" parent="1" source="3nuBFxr9cyL0pnOWT2aG-4" target="3nuBFxr9cyL0pnOWT2aG-6" edge="1">
          <mxGeometry relative="1" as="geometry">
            <mxPoint x="235" y="1087" as="targetPoint" />
          </mxGeometry>
        </mxCell>
        <mxCell id="4b0HBvVVqxYmfOgEoiVm-5" style="edgeStyle=orthogonalEdgeStyle;rounded=0;orthogonalLoop=1;jettySize=auto;html=1;" edge="1" parent="1" source="4b0HBvVVqxYmfOgEoiVm-2">
          <mxGeometry relative="1" as="geometry">
            <mxPoint x="179.99999999999977" y="68.5" as="targetPoint" />
          </mxGeometry>
        </mxCell>
        <mxCell id="4b0HBvVVqxYmfOgEoiVm-2" value="" style="sketch=0;pointerEvents=1;shadow=0;dashed=0;html=1;strokeColor=none;labelPosition=center;verticalLabelPosition=bottom;verticalAlign=top;align=center;fillColor=#505050;shape=mxgraph.mscae.intune.user_group" vertex="1" parent="1">
          <mxGeometry x="60" y="50" width="50" height="37" as="geometry" />
        </mxCell>
        <mxCell id="4b0HBvVVqxYmfOgEoiVm-3" value="users (multiple)" style="text;html=1;strokeColor=none;fillColor=none;align=center;verticalAlign=middle;whiteSpace=wrap;rounded=0;" vertex="1" parent="1">
          <mxGeometry x="55" y="87" width="60" height="33" as="geometry" />
        </mxCell>
        <mxCell id="4b0HBvVVqxYmfOgEoiVm-7" style="edgeStyle=orthogonalEdgeStyle;rounded=0;orthogonalLoop=1;jettySize=auto;html=1;entryX=0;entryY=0.5;entryDx=0;entryDy=0;" edge="1" parent="1" target="4b0HBvVVqxYmfOgEoiVm-6">
          <mxGeometry relative="1" as="geometry">
            <mxPoint x="299.9999999999998" y="68.47058823529414" as="sourcePoint" />
          </mxGeometry>
        </mxCell>
        <mxCell id="4b0HBvVVqxYmfOgEoiVm-101" style="edgeStyle=orthogonalEdgeStyle;rounded=0;orthogonalLoop=1;jettySize=auto;html=1;fontSize=12;" edge="1" parent="1" source="4b0HBvVVqxYmfOgEoiVm-6" target="4b0HBvVVqxYmfOgEoiVm-28">
          <mxGeometry relative="1" as="geometry" />
        </mxCell>
        <mxCell id="4b0HBvVVqxYmfOgEoiVm-6" value="upload then map fields" style="shape=process;whiteSpace=wrap;html=1;backgroundOutline=1;" vertex="1" parent="1">
          <mxGeometry x="340" y="38.5" width="120" height="60" as="geometry" />
        </mxCell>
        <mxCell id="4b0HBvVVqxYmfOgEoiVm-8" value="database" style="shape=cylinder3;whiteSpace=wrap;html=1;boundedLbl=1;backgroundOutline=1;size=15;" vertex="1" parent="1">
          <mxGeometry x="190" y="400" width="60" height="80" as="geometry" />
        </mxCell>
        <mxCell id="4b0HBvVVqxYmfOgEoiVm-9" value="csv file" style="shape=document;whiteSpace=wrap;html=1;boundedLbl=1;" vertex="1" parent="1">
          <mxGeometry x="180" y="40" width="120" height="80" as="geometry" />
        </mxCell>
        <mxCell id="4b0HBvVVqxYmfOgEoiVm-18" style="edgeStyle=orthogonalEdgeStyle;rounded=0;orthogonalLoop=1;jettySize=auto;html=1;" edge="1" parent="1" source="4b0HBvVVqxYmfOgEoiVm-10" target="4b0HBvVVqxYmfOgEoiVm-8">
          <mxGeometry relative="1" as="geometry" />
        </mxCell>
        <mxCell id="4b0HBvVVqxYmfOgEoiVm-82" style="edgeStyle=orthogonalEdgeStyle;rounded=0;orthogonalLoop=1;jettySize=auto;html=1;fontSize=8;" edge="1" parent="1" source="4b0HBvVVqxYmfOgEoiVm-10" target="4b0HBvVVqxYmfOgEoiVm-78">
          <mxGeometry relative="1" as="geometry" />
        </mxCell>
        <mxCell id="4b0HBvVVqxYmfOgEoiVm-10" value="leads (table)" style="shape=dataStorage;whiteSpace=wrap;html=1;fixedSize=1;" vertex="1" parent="1">
          <mxGeometry x="30" y="535" width="120" height="80" as="geometry" />
        </mxCell>
        <mxCell id="4b0HBvVVqxYmfOgEoiVm-17" style="edgeStyle=orthogonalEdgeStyle;rounded=0;orthogonalLoop=1;jettySize=auto;html=1;entryX=0;entryY=0.5;entryDx=0;entryDy=0;entryPerimeter=0;" edge="1" parent="1" source="4b0HBvVVqxYmfOgEoiVm-11" target="4b0HBvVVqxYmfOgEoiVm-8">
          <mxGeometry relative="1" as="geometry" />
        </mxCell>
        <mxCell id="4b0HBvVVqxYmfOgEoiVm-11" value="upload (table)&amp;nbsp;" style="shape=dataStorage;whiteSpace=wrap;html=1;fixedSize=1;" vertex="1" parent="1">
          <mxGeometry x="32.5" y="365" width="115" height="80" as="geometry" />
        </mxCell>
        <mxCell id="4b0HBvVVqxYmfOgEoiVm-40" style="edgeStyle=orthogonalEdgeStyle;rounded=0;orthogonalLoop=1;jettySize=auto;html=1;entryX=0;entryY=0.5;entryDx=0;entryDy=0;" edge="1" parent="1" source="4b0HBvVVqxYmfOgEoiVm-20" target="4b0HBvVVqxYmfOgEoiVm-39">
          <mxGeometry relative="1" as="geometry" />
        </mxCell>
        <mxCell id="4b0HBvVVqxYmfOgEoiVm-73" style="edgeStyle=orthogonalEdgeStyle;rounded=0;orthogonalLoop=1;jettySize=auto;html=1;" edge="1" parent="1" source="4b0HBvVVqxYmfOgEoiVm-20" target="4b0HBvVVqxYmfOgEoiVm-72">
          <mxGeometry relative="1" as="geometry" />
        </mxCell>
        <mxCell id="4b0HBvVVqxYmfOgEoiVm-20" value="import mapped fields" style="shape=process;whiteSpace=wrap;html=1;backgroundOutline=1;" vertex="1" parent="1">
          <mxGeometry x="135" y="180" width="120" height="60" as="geometry" />
        </mxCell>
        <mxCell id="4b0HBvVVqxYmfOgEoiVm-36" style="edgeStyle=orthogonalEdgeStyle;rounded=0;orthogonalLoop=1;jettySize=auto;html=1;entryX=0;entryY=0.5;entryDx=0;entryDy=0;" edge="1" parent="1" source="4b0HBvVVqxYmfOgEoiVm-24" target="4b0HBvVVqxYmfOgEoiVm-20">
          <mxGeometry relative="1" as="geometry">
            <Array as="points">
              <mxPoint x="75" y="150" />
              <mxPoint x="75" y="210" />
            </Array>
          </mxGeometry>
        </mxCell>
        <mxCell id="4b0HBvVVqxYmfOgEoiVm-24" value="display mapped fields" style="shape=table;startSize=30;container=1;collapsible=0;childLayout=tableLayout;fixedRows=1;rowLines=0;fontStyle=1;" vertex="1" parent="1">
          <mxGeometry x="530" y="30" width="180" height="120" as="geometry" />
        </mxCell>
        <mxCell id="4b0HBvVVqxYmfOgEoiVm-25" value="" style="shape=tableRow;horizontal=0;startSize=0;swimlaneHead=0;swimlaneBody=0;top=0;left=0;bottom=0;right=0;collapsible=0;dropTarget=0;fillColor=none;points=[[0,0.5],[1,0.5]];portConstraint=eastwest;" vertex="1" parent="4b0HBvVVqxYmfOgEoiVm-24">
          <mxGeometry y="30" width="180" height="30" as="geometry" />
        </mxCell>
        <mxCell id="4b0HBvVVqxYmfOgEoiVm-26" value="field 1" style="shape=partialRectangle;html=1;whiteSpace=wrap;connectable=0;fillColor=none;top=0;left=0;bottom=0;right=0;overflow=hidden;pointerEvents=1;" vertex="1" parent="4b0HBvVVqxYmfOgEoiVm-25">
          <mxGeometry width="40" height="30" as="geometry">
            <mxRectangle width="40" height="30" as="alternateBounds" />
          </mxGeometry>
        </mxCell>
        <mxCell id="4b0HBvVVqxYmfOgEoiVm-27" value="mapped field 1" style="shape=partialRectangle;html=1;whiteSpace=wrap;connectable=0;fillColor=none;top=0;left=0;bottom=0;right=0;align=left;spacingLeft=6;overflow=hidden;" vertex="1" parent="4b0HBvVVqxYmfOgEoiVm-25">
          <mxGeometry x="40" width="140" height="30" as="geometry">
            <mxRectangle width="140" height="30" as="alternateBounds" />
          </mxGeometry>
        </mxCell>
        <mxCell id="4b0HBvVVqxYmfOgEoiVm-28" value="" style="shape=tableRow;horizontal=0;startSize=0;swimlaneHead=0;swimlaneBody=0;top=0;left=0;bottom=0;right=0;collapsible=0;dropTarget=0;fillColor=none;points=[[0,0.5],[1,0.5]];portConstraint=eastwest;" vertex="1" parent="4b0HBvVVqxYmfOgEoiVm-24">
          <mxGeometry y="60" width="180" height="30" as="geometry" />
        </mxCell>
        <mxCell id="4b0HBvVVqxYmfOgEoiVm-29" value="field 2" style="shape=partialRectangle;html=1;whiteSpace=wrap;connectable=0;fillColor=none;top=0;left=0;bottom=0;right=0;overflow=hidden;" vertex="1" parent="4b0HBvVVqxYmfOgEoiVm-28">
          <mxGeometry width="40" height="30" as="geometry">
            <mxRectangle width="40" height="30" as="alternateBounds" />
          </mxGeometry>
        </mxCell>
        <mxCell id="4b0HBvVVqxYmfOgEoiVm-30" value="mapped field 2" style="shape=partialRectangle;html=1;whiteSpace=wrap;connectable=0;fillColor=none;top=0;left=0;bottom=0;right=0;align=left;spacingLeft=6;overflow=hidden;" vertex="1" parent="4b0HBvVVqxYmfOgEoiVm-28">
          <mxGeometry x="40" width="140" height="30" as="geometry">
            <mxRectangle width="140" height="30" as="alternateBounds" />
          </mxGeometry>
        </mxCell>
        <mxCell id="4b0HBvVVqxYmfOgEoiVm-31" value="" style="shape=tableRow;horizontal=0;startSize=0;swimlaneHead=0;swimlaneBody=0;top=0;left=0;bottom=0;right=0;collapsible=0;dropTarget=0;fillColor=none;points=[[0,0.5],[1,0.5]];portConstraint=eastwest;" vertex="1" parent="4b0HBvVVqxYmfOgEoiVm-24">
          <mxGeometry y="90" width="180" height="30" as="geometry" />
        </mxCell>
        <mxCell id="4b0HBvVVqxYmfOgEoiVm-32" value="field 3" style="shape=partialRectangle;html=1;whiteSpace=wrap;connectable=0;fillColor=none;top=0;left=0;bottom=0;right=0;overflow=hidden;" vertex="1" parent="4b0HBvVVqxYmfOgEoiVm-31">
          <mxGeometry width="40" height="30" as="geometry">
            <mxRectangle width="40" height="30" as="alternateBounds" />
          </mxGeometry>
        </mxCell>
        <mxCell id="4b0HBvVVqxYmfOgEoiVm-33" value="mapped field 3" style="shape=partialRectangle;html=1;whiteSpace=wrap;connectable=0;fillColor=none;top=0;left=0;bottom=0;right=0;align=left;spacingLeft=6;overflow=hidden;" vertex="1" parent="4b0HBvVVqxYmfOgEoiVm-31">
          <mxGeometry x="40" width="140" height="30" as="geometry">
            <mxRectangle width="140" height="30" as="alternateBounds" />
          </mxGeometry>
        </mxCell>
        <mxCell id="4b0HBvVVqxYmfOgEoiVm-43" style="edgeStyle=orthogonalEdgeStyle;rounded=0;orthogonalLoop=1;jettySize=auto;html=1;entryX=0;entryY=0.5;entryDx=0;entryDy=0;" edge="1" parent="1" source="4b0HBvVVqxYmfOgEoiVm-37" target="4b0HBvVVqxYmfOgEoiVm-42">
          <mxGeometry relative="1" as="geometry" />
        </mxCell>
        <mxCell id="4b0HBvVVqxYmfOgEoiVm-37" value=":object = mapped fields and values" style="rounded=0;whiteSpace=wrap;html=1;" vertex="1" parent="1">
          <mxGeometry x="420" y="180" width="120" height="60" as="geometry" />
        </mxCell>
        <mxCell id="4b0HBvVVqxYmfOgEoiVm-41" style="edgeStyle=orthogonalEdgeStyle;rounded=0;orthogonalLoop=1;jettySize=auto;html=1;entryX=0;entryY=0.5;entryDx=0;entryDy=0;" edge="1" parent="1" source="4b0HBvVVqxYmfOgEoiVm-39" target="4b0HBvVVqxYmfOgEoiVm-37">
          <mxGeometry relative="1" as="geometry" />
        </mxCell>
        <mxCell id="4b0HBvVVqxYmfOgEoiVm-39" value="conditions" style="rhombus;whiteSpace=wrap;html=1;" vertex="1" parent="1">
          <mxGeometry x="300" y="170" width="80" height="80" as="geometry" />
        </mxCell>
        <mxCell id="4b0HBvVVqxYmfOgEoiVm-45" style="edgeStyle=orthogonalEdgeStyle;rounded=0;orthogonalLoop=1;jettySize=auto;html=1;" edge="1" parent="1" source="4b0HBvVVqxYmfOgEoiVm-42" target="4b0HBvVVqxYmfOgEoiVm-44">
          <mxGeometry relative="1" as="geometry" />
        </mxCell>
        <mxCell id="4b0HBvVVqxYmfOgEoiVm-42" value="count uploaded file data" style="shape=process;whiteSpace=wrap;html=1;backgroundOutline=1;" vertex="1" parent="1">
          <mxGeometry x="590" y="180" width="120" height="60" as="geometry" />
        </mxCell>
        <mxCell id="4b0HBvVVqxYmfOgEoiVm-44" value="data = 50" style="rhombus;whiteSpace=wrap;html=1;" vertex="1" parent="1">
          <mxGeometry x="610" y="310" width="80" height="80" as="geometry" />
        </mxCell>
        <mxCell id="4b0HBvVVqxYmfOgEoiVm-46" value="upload_id" style="endArrow=block;endFill=1;html=1;edgeStyle=orthogonalEdgeStyle;align=left;verticalAlign=top;rounded=0;entryX=0.5;entryY=1;entryDx=0;entryDy=0;" edge="1" parent="1" source="4b0HBvVVqxYmfOgEoiVm-10" target="4b0HBvVVqxYmfOgEoiVm-11">
          <mxGeometry x="-0.3333" y="58" relative="1" as="geometry">
            <mxPoint x="87.5" y="475" as="sourcePoint" />
            <mxPoint x="247.5" y="475" as="targetPoint" />
            <mxPoint as="offset" />
          </mxGeometry>
        </mxCell>
        <mxCell id="4b0HBvVVqxYmfOgEoiVm-47" value="1" style="edgeLabel;resizable=0;html=1;align=left;verticalAlign=bottom;" connectable="0" vertex="1" parent="4b0HBvVVqxYmfOgEoiVm-46">
          <mxGeometry x="-1" relative="1" as="geometry" />
        </mxCell>
        <mxCell id="4b0HBvVVqxYmfOgEoiVm-70" style="edgeStyle=orthogonalEdgeStyle;rounded=0;orthogonalLoop=1;jettySize=auto;html=1;entryX=0.5;entryY=1;entryDx=0;entryDy=0;" edge="1" parent="1" source="4b0HBvVVqxYmfOgEoiVm-48" target="4b0HBvVVqxYmfOgEoiVm-49">
          <mxGeometry relative="1" as="geometry" />
        </mxCell>
        <mxCell id="4b0HBvVVqxYmfOgEoiVm-48" value=":object = leads array" style="rounded=1;whiteSpace=wrap;html=1;" vertex="1" parent="1">
          <mxGeometry x="420" y="420" width="120" height="60" as="geometry" />
        </mxCell>
        <mxCell id="4b0HBvVVqxYmfOgEoiVm-75" style="edgeStyle=orthogonalEdgeStyle;rounded=0;orthogonalLoop=1;jettySize=auto;html=1;entryX=0.5;entryY=1;entryDx=0;entryDy=0;" edge="1" parent="1" source="4b0HBvVVqxYmfOgEoiVm-49" target="4b0HBvVVqxYmfOgEoiVm-10">
          <mxGeometry relative="1" as="geometry" />
        </mxCell>
        <mxCell id="4b0HBvVVqxYmfOgEoiVm-49" value="create data to leads" style="shape=process;whiteSpace=wrap;html=1;backgroundOutline=1;" vertex="1" parent="1">
          <mxGeometry x="380" y="280" width="120" height="60" as="geometry" />
        </mxCell>
        <mxCell id="4b0HBvVVqxYmfOgEoiVm-68" style="edgeStyle=orthogonalEdgeStyle;rounded=0;orthogonalLoop=1;jettySize=auto;html=1;" edge="1" parent="1" source="4b0HBvVVqxYmfOgEoiVm-51" target="4b0HBvVVqxYmfOgEoiVm-49">
          <mxGeometry relative="1" as="geometry" />
        </mxCell>
        <mxCell id="4b0HBvVVqxYmfOgEoiVm-69" style="edgeStyle=orthogonalEdgeStyle;rounded=0;orthogonalLoop=1;jettySize=auto;html=1;entryX=0.5;entryY=0;entryDx=0;entryDy=0;" edge="1" parent="1" source="4b0HBvVVqxYmfOgEoiVm-51" target="4b0HBvVVqxYmfOgEoiVm-48">
          <mxGeometry relative="1" as="geometry" />
        </mxCell>
        <mxCell id="4b0HBvVVqxYmfOgEoiVm-51" value="&lt;b&gt;YES&lt;/b&gt;" style="text;html=1;strokeColor=none;fillColor=none;align=center;verticalAlign=middle;whiteSpace=wrap;rounded=0;" vertex="1" parent="1">
          <mxGeometry x="560" y="335" width="60" height="30" as="geometry" />
        </mxCell>
        <mxCell id="4b0HBvVVqxYmfOgEoiVm-66" style="edgeStyle=orthogonalEdgeStyle;rounded=0;orthogonalLoop=1;jettySize=auto;html=1;" edge="1" parent="1" source="4b0HBvVVqxYmfOgEoiVm-58" target="4b0HBvVVqxYmfOgEoiVm-62">
          <mxGeometry relative="1" as="geometry" />
        </mxCell>
        <mxCell id="4b0HBvVVqxYmfOgEoiVm-67" style="edgeStyle=orthogonalEdgeStyle;rounded=0;orthogonalLoop=1;jettySize=auto;html=1;entryX=0.5;entryY=1;entryDx=0;entryDy=0;" edge="1" parent="1" source="4b0HBvVVqxYmfOgEoiVm-58" target="4b0HBvVVqxYmfOgEoiVm-48">
          <mxGeometry relative="1" as="geometry" />
        </mxCell>
        <mxCell id="4b0HBvVVqxYmfOgEoiVm-58" value="&lt;b&gt;NO&lt;/b&gt;" style="text;html=1;align=center;verticalAlign=middle;resizable=0;points=[];autosize=1;strokeColor=none;fillColor=none;" vertex="1" parent="1">
          <mxGeometry x="630" y="400" width="40" height="30" as="geometry" />
        </mxCell>
        <mxCell id="4b0HBvVVqxYmfOgEoiVm-77" style="edgeStyle=orthogonalEdgeStyle;rounded=0;orthogonalLoop=1;jettySize=auto;html=1;" edge="1" parent="1" source="4b0HBvVVqxYmfOgEoiVm-62" target="4b0HBvVVqxYmfOgEoiVm-10">
          <mxGeometry relative="1" as="geometry" />
        </mxCell>
        <mxCell id="4b0HBvVVqxYmfOgEoiVm-62" value="create remaining data to leads" style="shape=process;whiteSpace=wrap;html=1;backgroundOutline=1;" vertex="1" parent="1">
          <mxGeometry x="570" y="545" width="120" height="60" as="geometry" />
        </mxCell>
        <mxCell id="4b0HBvVVqxYmfOgEoiVm-74" style="edgeStyle=orthogonalEdgeStyle;rounded=0;orthogonalLoop=1;jettySize=auto;html=1;" edge="1" parent="1" source="4b0HBvVVqxYmfOgEoiVm-72" target="4b0HBvVVqxYmfOgEoiVm-11">
          <mxGeometry relative="1" as="geometry" />
        </mxCell>
        <mxCell id="4b0HBvVVqxYmfOgEoiVm-72" value="create new upload" style="text;html=1;align=center;verticalAlign=middle;resizable=0;points=[];autosize=1;strokeColor=none;fillColor=none;" vertex="1" parent="1">
          <mxGeometry x="150" y="280" width="120" height="30" as="geometry" />
        </mxCell>
        <mxCell id="4b0HBvVVqxYmfOgEoiVm-86" style="edgeStyle=orthogonalEdgeStyle;rounded=0;orthogonalLoop=1;jettySize=auto;html=1;fontSize=7;" edge="1" parent="1" source="4b0HBvVVqxYmfOgEoiVm-78" target="4b0HBvVVqxYmfOgEoiVm-84">
          <mxGeometry relative="1" as="geometry" />
        </mxCell>
        <mxCell id="4b0HBvVVqxYmfOgEoiVm-87" style="edgeStyle=orthogonalEdgeStyle;rounded=0;orthogonalLoop=1;jettySize=auto;html=1;fontSize=7;" edge="1" parent="1" source="4b0HBvVVqxYmfOgEoiVm-78" target="4b0HBvVVqxYmfOgEoiVm-85">
          <mxGeometry relative="1" as="geometry" />
        </mxCell>
        <mxCell id="4b0HBvVVqxYmfOgEoiVm-78" value="&lt;font style=&quot;font-size: 7px;&quot;&gt;count &lt;br&gt;created leads that is greater than 0&lt;/font&gt;" style="rhombus;whiteSpace=wrap;html=1;" vertex="1" parent="1">
          <mxGeometry x="350" y="650" width="80" height="80" as="geometry" />
        </mxCell>
        <mxCell id="4b0HBvVVqxYmfOgEoiVm-96" style="edgeStyle=orthogonalEdgeStyle;rounded=0;orthogonalLoop=1;jettySize=auto;html=1;entryX=1;entryY=0.5;entryDx=0;entryDy=0;fontSize=12;" edge="1" parent="1" source="4b0HBvVVqxYmfOgEoiVm-84" target="4b0HBvVVqxYmfOgEoiVm-95">
          <mxGeometry relative="1" as="geometry" />
        </mxCell>
        <mxCell id="4b0HBvVVqxYmfOgEoiVm-84" value="&lt;b&gt;NO&lt;/b&gt;" style="text;html=1;align=center;verticalAlign=middle;resizable=0;points=[];autosize=1;strokeColor=none;fillColor=none;" vertex="1" parent="1">
          <mxGeometry x="280" y="675" width="40" height="30" as="geometry" />
        </mxCell>
        <mxCell id="4b0HBvVVqxYmfOgEoiVm-99" style="edgeStyle=orthogonalEdgeStyle;rounded=0;orthogonalLoop=1;jettySize=auto;html=1;fontSize=12;" edge="1" parent="1" source="4b0HBvVVqxYmfOgEoiVm-85" target="4b0HBvVVqxYmfOgEoiVm-94">
          <mxGeometry relative="1" as="geometry" />
        </mxCell>
        <mxCell id="4b0HBvVVqxYmfOgEoiVm-85" value="&lt;b&gt;YES&lt;/b&gt;" style="text;html=1;strokeColor=none;fillColor=none;align=center;verticalAlign=middle;whiteSpace=wrap;rounded=0;" vertex="1" parent="1">
          <mxGeometry x="460" y="675" width="60" height="30" as="geometry" />
        </mxCell>
        <mxCell id="4b0HBvVVqxYmfOgEoiVm-92" value="&lt;b&gt;QUEUE START&lt;/b&gt;" style="shape=callout;whiteSpace=wrap;html=1;perimeter=calloutPerimeter;fontSize=15;" vertex="1" parent="1">
          <mxGeometry x="540" y="625" width="120" height="80" as="geometry" />
        </mxCell>
        <mxCell id="4b0HBvVVqxYmfOgEoiVm-94" value="&lt;font style=&quot;font-size: 12px;&quot;&gt;:Queue&lt;/font&gt;" style="rounded=0;whiteSpace=wrap;html=1;fontSize=15;" vertex="1" parent="1">
          <mxGeometry x="450" y="760" width="120" height="60" as="geometry" />
        </mxCell>
        <mxCell id="4b0HBvVVqxYmfOgEoiVm-97" style="edgeStyle=orthogonalEdgeStyle;rounded=0;orthogonalLoop=1;jettySize=auto;html=1;entryX=0.81;entryY=0.992;entryDx=0;entryDy=0;entryPerimeter=0;fontSize=12;" edge="1" parent="1" source="4b0HBvVVqxYmfOgEoiVm-95" target="4b0HBvVVqxYmfOgEoiVm-11">
          <mxGeometry relative="1" as="geometry" />
        </mxCell>
        <mxCell id="4b0HBvVVqxYmfOgEoiVm-95" value="delete upload record" style="shape=process;whiteSpace=wrap;html=1;backgroundOutline=1;fontSize=12;size=0.08333333333333333;" vertex="1" parent="1">
          <mxGeometry x="120" y="660" width="120" height="60" as="geometry" />
        </mxCell>
        <mxCell id="4b0HBvVVqxYmfOgEoiVm-98" value="multiple queues" style="text;html=1;strokeColor=none;fillColor=none;align=center;verticalAlign=middle;whiteSpace=wrap;rounded=0;fontSize=12;" vertex="1" parent="1">
          <mxGeometry x="530" y="730" width="60" height="30" as="geometry" />
        </mxCell>
      </root>
    </mxGraphModel>
  </diagram>
</mxfile>
